# Exported from Wings 3D 1.2.x.y.WINGS
mtllib simplecube.mtl
o Cube2
#98 vertices, 192 faces
v -1.00000000 -1.00000000 -1.00000000
v -1.00000000 -1.00000000 1.00000000
v -1.00000000 1.00000000 -1.00000000
v -1.00000000 1.00000000 1.00000000
v 1.00000000 -1.00000000 -1.00000000
v 1.00000000 -1.00000000 1.00000000
v 1.00000000 1.00000000 -1.00000000
v 1.00000000 1.00000000 1.00000000
v -0.99229962 1.00000000 1.00000000
v 0.99229962 1.00000000 1.00000000
v -0.99229962 1.00000000 -1.00000000
v 0.99229962 1.00000000 -1.00000000
v -0.99229962 -1.00000000 1.00000000
v 0.99229962 -1.00000000 1.00000000
v -0.99229962 -1.00000000 -1.00000000
v 0.99229962 -1.00000000 -1.00000000
v 1.00000000 1.00000000 -0.99229962
v 1.00000000 1.00000000 0.99229962
v 1.00000000 -1.00000000 -0.99229962
v 1.00000000 -1.00000000 0.99229962
v -1.00000000 1.00000000 0.99229962
v -1.00000000 1.00000000 -0.99229962
v -1.00000000 -1.00000000 0.99229962
v -1.00000000 -1.00000000 -0.99229962
v 1.00000000 0.99229962 1.00000000
v 1.00000000 -0.99229962 1.00000000
v 1.00000000 0.99229962 -1.00000000
v 1.00000000 -0.99229962 -1.00000000
v -1.00000000 -0.99229962 1.00000000
v -1.00000000 0.99229962 1.00000000
v -1.00000000 0.99229962 -1.00000000
v -1.00000000 -0.99229962 -1.00000000
v -1.00000000 0.99229962 0.99229962
v -0.99229962 -1.00000000 0.99229962
v 0.99229962 0.99229962 -1.00000000
v -0.99229962 0.99229962 1.00000000
v -0.99229962 -1.00000000 -0.99229962
v -1.00000000 -0.99229962 -0.99229962
v -0.99229962 -0.99229962 -1.00000000
v -1.00000000 0.99229962 -0.99229962
v 0.99229962 0.99229962 1.00000000
v -0.99229962 1.00000000 0.99229962
v -0.99229962 0.99229962 -1.00000000
v 0.99229962 1.00000000 -0.99229962
v 0.99229962 -0.99229962 1.00000000
v 0.99229962 -1.00000000 0.99229962
v -0.99229962 -0.99229962 1.00000000
v -1.00000000 -0.99229962 0.99229962
v 0.99229962 1.00000000 0.99229962
v 1.00000000 -0.99229962 0.99229962
v 0.99229962 -1.00000000 -0.99229962
v 1.00000000 0.99229962 0.99229962
v 1.00000000 0.99229962 -0.99229962
v 0.99229962 -0.99229962 -1.00000000
v 1.00000000 -0.99229962 -0.99229962
v -0.99229962 1.00000000 -0.99229962
v 0.0000000e+0 -0.99229962 1.00000000
v 0.0000000e+0 0.99229962 1.00000000
v 0.0000000e+0 -0.99229962 -1.00000000
v 0.0000000e+0 0.99229962 -1.00000000
v 0.0000000e+0 1.00000000 -0.99229962
v 0.0000000e+0 1.00000000 0.99229962
v 0.0000000e+0 -1.00000000 -0.99229962
v 0.0000000e+0 -1.00000000 0.99229962
v 0.0000000e+0 -1.00000000 -1.00000000
v 0.0000000e+0 -1.00000000 1.00000000
v 0.0000000e+0 1.00000000 -1.00000000
v 0.0000000e+0 1.00000000 1.00000000
v 0.0000000e+0 0.0000000e+0 1.00000000
v 0.0000000e+0 0.0000000e+0 -1.00000000
v 0.99229962 0.0000000e+0 1.00000000
v -0.99229962 0.0000000e+0 1.00000000
v -0.99229962 0.0000000e+0 -1.00000000
v 0.99229962 0.0000000e+0 -1.00000000
v 1.00000000 0.0000000e+0 -0.99229962
v 1.00000000 0.0000000e+0 0.99229962
v -1.00000000 0.0000000e+0 -0.99229962
v -1.00000000 0.0000000e+0 0.99229962
v -1.00000000 0.0000000e+0 -1.00000000
v -1.00000000 0.0000000e+0 1.00000000
v 1.00000000 0.0000000e+0 -1.00000000
v 1.00000000 0.0000000e+0 1.00000000
v 1.00000000 0.0000000e+0 0.0000000e+0
v -1.00000000 0.0000000e+0 0.0000000e+0
v 0.0000000e+0 1.00000000 0.0000000e+0
v 0.0000000e+0 -1.00000000 0.0000000e+0
v 1.00000000 0.99229962 0.0000000e+0
v 1.00000000 -0.99229962 0.0000000e+0
v -1.00000000 -0.99229962 0.0000000e+0
v -1.00000000 0.99229962 0.0000000e+0
v 0.99229962 1.00000000 0.0000000e+0
v -0.99229962 1.00000000 0.0000000e+0
v -0.99229962 -1.00000000 0.0000000e+0
v 0.99229962 -1.00000000 0.0000000e+0
v -1.00000000 -1.00000000 0.0000000e+0
v -1.00000000 1.00000000 0.0000000e+0
v 1.00000000 -1.00000000 0.0000000e+0
v 1.00000000 1.00000000 0.0000000e+0
vn -0.57735027 -0.57735027 -0.57735027
vn -0.57735027 -0.57735027 0.57735027
vn -0.57735027 0.57735027 -0.57735027
vn -0.57735027 0.57735027 0.57735027
vn 0.57735027 -0.57735027 -0.57735027
vn 0.57735027 -0.57735027 0.57735027
vn 0.57735027 0.57735027 -0.57735027
vn 0.57735027 0.57735027 0.57735027
vn 0.0000000e+0 0.70710678 0.70710678
vn 0.0000000e+0 0.70710678 0.70710678
vn 0.0000000e+0 0.70710678 -0.70710678
vn 0.0000000e+0 0.70710678 -0.70710678
vn 0.0000000e+0 -0.70710678 0.70710678
vn 0.0000000e+0 -0.70710678 0.70710678
vn 0.0000000e+0 -0.70710678 -0.70710678
vn 0.0000000e+0 -0.70710678 -0.70710678
vn 0.70710678 0.70710678 0.0000000e+0
vn 0.70710678 0.70710678 0.0000000e+0
vn 0.70710678 -0.70710678 0.0000000e+0
vn 0.70710678 -0.70710678 0.0000000e+0
vn -0.70710678 0.70710678 0.0000000e+0
vn -0.70710678 0.70710678 0.0000000e+0
vn -0.70710678 -0.70710678 0.0000000e+0
vn -0.70710678 -0.70710678 0.0000000e+0
vn 0.70710678 0.0000000e+0 0.70710678
vn 0.70710678 0.0000000e+0 0.70710678
vn 0.70710678 0.0000000e+0 -0.70710678
vn 0.70710678 0.0000000e+0 -0.70710678
vn -0.70710678 0.0000000e+0 0.70710678
vn -0.70710678 0.0000000e+0 0.70710678
vn -0.70710678 0.0000000e+0 -0.70710678
vn -0.70710678 0.0000000e+0 -0.70710678
vn -1.00000000 0.0000000e+0 0.0000000e+0
vn 0.0000000e+0 -1.00000000 0.0000000e+0
vn 0.0000000e+0 0.0000000e+0 -1.00000000
vn 0.0000000e+0 0.0000000e+0 1.00000000
vn 0.0000000e+0 -1.00000000 0.0000000e+0
vn -1.00000000 0.0000000e+0 0.0000000e+0
vn 0.0000000e+0 0.0000000e+0 -1.00000000
vn -1.00000000 0.0000000e+0 0.0000000e+0
vn 0.0000000e+0 0.0000000e+0 1.00000000
vn 0.0000000e+0 1.00000000 0.0000000e+0
vn 0.0000000e+0 0.0000000e+0 -1.00000000
vn 0.0000000e+0 1.00000000 0.0000000e+0
vn 0.0000000e+0 0.0000000e+0 1.00000000
vn 0.0000000e+0 -1.00000000 0.0000000e+0
vn 0.0000000e+0 0.0000000e+0 1.00000000
vn -1.00000000 0.0000000e+0 0.0000000e+0
vn 0.0000000e+0 1.00000000 0.0000000e+0
vn 1.00000000 0.0000000e+0 0.0000000e+0
vn 0.0000000e+0 -1.00000000 0.0000000e+0
vn 1.00000000 0.0000000e+0 0.0000000e+0
vn 1.00000000 0.0000000e+0 0.0000000e+0
vn 0.0000000e+0 0.0000000e+0 -1.00000000
vn 1.00000000 0.0000000e+0 0.0000000e+0
vn 0.0000000e+0 1.00000000 0.0000000e+0
vn 0.0000000e+0 0.0000000e+0 1.00000000
vn 0.0000000e+0 0.0000000e+0 1.00000000
vn 0.0000000e+0 0.0000000e+0 -1.00000000
vn 0.0000000e+0 0.0000000e+0 -1.00000000
vn 0.0000000e+0 1.00000000 0.0000000e+0
vn 0.0000000e+0 1.00000000 0.0000000e+0
vn 0.0000000e+0 -1.00000000 0.0000000e+0
vn 0.0000000e+0 -1.00000000 0.0000000e+0
vn 0.0000000e+0 -0.70710678 -0.70710678
vn 0.0000000e+0 -0.70710678 0.70710678
vn 0.0000000e+0 0.70710678 -0.70710678
vn 0.0000000e+0 0.70710678 0.70710678
vn 0.0000000e+0 0.0000000e+0 1.00000000
vn 0.0000000e+0 0.0000000e+0 -1.00000000
vn 0.0000000e+0 0.0000000e+0 1.00000000
vn 0.0000000e+0 0.0000000e+0 1.00000000
vn 0.0000000e+0 0.0000000e+0 -1.00000000
vn 0.0000000e+0 0.0000000e+0 -1.00000000
vn 1.00000000 0.0000000e+0 0.0000000e+0
vn 1.00000000 0.0000000e+0 0.0000000e+0
vn -1.00000000 0.0000000e+0 0.0000000e+0
vn -1.00000000 0.0000000e+0 0.0000000e+0
vn -0.70710678 0.0000000e+0 -0.70710678
vn -0.70710678 0.0000000e+0 0.70710678
vn 0.70710678 0.0000000e+0 -0.70710678
vn 0.70710678 0.0000000e+0 0.70710678
vn 1.00000000 0.0000000e+0 0.0000000e+0
vn -1.00000000 0.0000000e+0 0.0000000e+0
vn 0.0000000e+0 1.00000000 0.0000000e+0
vn 0.0000000e+0 -1.00000000 0.0000000e+0
vn 1.00000000 0.0000000e+0 0.0000000e+0
vn 1.00000000 0.0000000e+0 0.0000000e+0
vn -1.00000000 0.0000000e+0 0.0000000e+0
vn -1.00000000 0.0000000e+0 0.0000000e+0
vn 0.0000000e+0 1.00000000 0.0000000e+0
vn 0.0000000e+0 1.00000000 0.0000000e+0
vn 0.0000000e+0 -1.00000000 0.0000000e+0
vn 0.0000000e+0 -1.00000000 0.0000000e+0
vn -0.70710678 -0.70710678 0.0000000e+0
vn -0.70710678 0.70710678 0.0000000e+0
vn 0.70710678 -0.70710678 0.0000000e+0
vn 0.70710678 0.70710678 0.0000000e+0
g Cube2_default
usemtl default
s 1
f 1//1 37//37 24//24
f 1//1 38//38 32//32
f 1//1 39//39 15//15
f 2//2 34//34 13//13
f 2//2 47//47 29//29
f 2//2 48//48 23//23
f 3//3 40//40 22//22
f 3//3 43//43 31//31
f 3//3 56//56 11//11
f 4//4 33//33 30//30
f 4//4 36//36 9//9
f 4//4 42//42 21//21
f 5//5 51//51 16//16
f 5//5 54//54 28//28
f 5//5 55//55 19//19
f 6//6 45//45 14//14
f 6//6 46//46 20//20
f 6//6 50//50 26//26
f 7//7 35//35 12//12
f 7//7 44//44 17//17
f 7//7 53//53 27//27
f 8//8 41//41 25//25
f 8//8 49//49 10//10
f 8//8 52//52 18//18
f 9//9 36//36 68//68
f 9//9 42//42 4//4
f 10//10 41//41 8//8
f 10//10 68//68 41//41
f 11//11 43//43 3//3
f 11//11 56//56 67//67
f 12//12 44//44 7//7
f 12//12 67//67 44//44
f 13//13 34//34 66//66
f 13//13 47//47 2//2
f 14//14 46//46 6//6
f 14//14 66//66 46//46
f 15//15 37//37 1//1
f 15//15 39//39 65//65
f 16//16 54//54 5//5
f 16//16 65//65 54//54
f 17//17 44//44 98//98
f 17//17 53//53 7//7
f 18//18 49//49 8//8
f 18//18 98//98 49//49
f 19//19 51//51 5//5
f 19//19 55//55 97//97
f 20//20 50//50 6//6
f 20//20 97//97 50//50
f 21//21 33//33 4//4
f 21//21 96//96 33//33
f 22//22 40//40 96//96
f 22//22 56//56 3//3
f 23//23 34//34 2//2
f 23//23 95//95 34//34
f 24//24 37//37 95//95
f 24//24 38//38 1//1
f 25//25 52//52 8//8
f 25//25 82//82 52//52
f 26//26 45//45 6//6
f 26//26 50//50 82//82
f 27//27 35//35 7//7
f 27//27 81//81 35//35
f 28//28 54//54 81//81
f 28//28 55//55 5//5
f 29//29 47//47 80//80
f 29//29 48//48 2//2
f 30//30 36//36 4//4
f 30//30 80//80 36//36
f 31//31 40//40 3//3
f 31//31 79//79 40//40
f 32//32 38//38 79//79
f 32//32 39//39 1//1
f 33//33 80//80 30//30
f 33//33 84//84 78//78
f 33//33 96//96 90//90
f 34//34 86//86 64//64
f 34//34 95//95 93//93
f 35//35 67//67 12//12
f 35//35 70//70 60//60
f 35//35 81//81 74//74
f 36//36 69//69 58//58
f 36//36 80//80 72//72
f 37//37 65//65 63//63
f 37//37 86//86 93//93
f 38//38 84//84 77//77
f 38//38 95//95 89//89
f 39//39 70//70 59//59
f 39//39 79//79 73//73
f 40//40 79//79 77//77
f 40//40 84//84 90//90
f 41//41 68//68 58//58
f 41//41 69//69 71//71
f 41//41 82//82 25//25
f 42//42 68//68 62//62
f 42//42 85//85 92//92
f 42//42 96//96 21//21
f 43//43 67//67 60//60
f 43//43 70//70 73//73
f 43//43 79//79 31//31
f 44//44 67//67 61//61
f 44//44 85//85 91//91
f 45//45 66//66 14//14
f 45//45 69//69 57//57
f 45//45 82//82 71//71
f 46//46 66//66 64//64
f 46//46 86//86 94//94
f 46//46 97//97 20//20
f 47//47 66//66 57//57
f 47//47 69//69 72//72
f 48//48 80//80 78//78
f 48//48 84//84 89//89
f 48//48 95//95 23//23
f 49//49 68//68 10//10
f 49//49 85//85 62//62
f 49//49 98//98 91//91
f 50//50 83//83 76//76
f 50//50 97//97 88//88
f 51//51 65//65 16//16
f 51//51 86//86 63//63
f 51//51 97//97 94//94
f 52//52 82//82 76//76
f 52//52 83//83 87//87
f 52//52 98//98 18//18
f 53//53 81//81 27//27
f 53//53 83//83 75//75
f 53//53 98//98 87//87
f 54//54 65//65 59//59
f 54//54 70//70 74//74
f 55//55 81//81 75//75
f 55//55 83//83 88//88
f 56//56 85//85 61//61
f 56//56 96//96 92//92
f 57//57 66//66 45//45
f 57//57 69//69 47//47
f 58//58 68//68 36//36
f 58//58 69//69 41//41
f 59//59 65//65 39//39
f 59//59 70//70 54//54
f 60//60 67//67 35//35
f 60//60 70//70 43//43
f 61//61 67//67 56//56
f 61//61 85//85 44//44
f 62//62 68//68 49//49
f 62//62 85//85 42//42
f 63//63 65//65 51//51
f 63//63 86//86 37//37
f 64//64 66//66 34//34
f 64//64 86//86 46//46
f 65//65 37//37 15//15
f 66//66 47//47 13//13
f 67//67 43//43 11//11
f 68//68 42//42 9//9
f 71//71 69//69 45//45
f 71//71 82//82 41//41
f 72//72 69//69 36//36
f 72//72 80//80 47//47
f 73//73 70//70 39//39
f 73//73 79//79 43//43
f 74//74 70//70 35//35
f 74//74 81//81 54//54
f 75//75 81//81 53//53
f 75//75 83//83 55//55
f 76//76 82//82 50//50
f 76//76 83//83 52//52
f 77//77 79//79 38//38
f 77//77 84//84 40//40
f 78//78 80//80 33//33
f 78//78 84//84 48//48
f 79//79 39//39 32//32
f 80//80 48//48 29//29
f 81//81 55//55 28//28
f 82//82 45//45 26//26
f 87//87 83//83 53//53
f 87//87 98//98 52//52
f 88//88 83//83 50//50
f 88//88 97//97 55//55
f 89//89 84//84 38//38
f 89//89 95//95 48//48
f 90//90 84//84 33//33
f 90//90 96//96 40//40
f 91//91 85//85 49//49
f 91//91 98//98 44//44
f 92//92 85//85 56//56
f 92//92 96//96 42//42
f 93//93 86//86 34//34
f 93//93 95//95 37//37
f 94//94 86//86 51//51
f 94//94 97//97 46//46
f 95//95 38//38 24//24
f 96//96 56//56 22//22
f 97//97 51//51 19//19
f 98//98 53//53 17//17
